PathFileType	4	(X/Y/Z)	C:\Users\Basilio\Documents\Thesis Gigler\squatting_fais\c3dfiles\077\SLS_back_pre3\markers_experimental.trc
DataRate	CameraRate	NumFrames	NumMarkers	Units	OrigDataRate	OrigDataStartFrame	OrigNumFrames
200.000000	200.000000	4	60	mm	200.000000	0	1636
Frame#	Time	FHD			LBHD			RBHD			C7			T10			CLAV			LSHO			LUUPA			LMUPA			LDUPA			LLEP			LMEP			LRAD			LUL			LRFIN			RSHO			RUPA1			RMUPA			RDUPA			RLEP			RMEP			RRAD			RUL			RUFIN			LASI			RASI			USACR			LSACR			RSACR			LTHI1			LTHI2			LTHI3			LTHI4			LLFC			LMFC			LTIB1			LTIB2			LTIB3			LTIB4			LLMAL			LHEE			LMT1			LMT2			LMT5			RTHI			RTHI2			RTHI3			RTHI4			RLFC			RMFC			RTIB1			RTIB2			RTIB3			RTIB4			RLMAL			RMMAL			RHEE			RMT1			RMT2			RMT5			
		X1	Y1	Z1	X2	Y2	Z2	X3	Y3	Z3	X4	Y4	Z4	X5	Y5	Z5	X6	Y6	Z6	X7	Y7	Z7	X8	Y8	Z8	X9	Y9	Z9	X10	Y10	Z10	X11	Y11	Z11	X12	Y12	Z12	X13	Y13	Z13	X14	Y14	Z14	X15	Y15	Z15	X16	Y16	Z16	X17	Y17	Z17	X18	Y18	Z18	X19	Y19	Z19	X20	Y20	Z20	X21	Y21	Z21	X22	Y22	Z22	X23	Y23	Z23	X24	Y24	Z24	X25	Y25	Z25	X26	Y26	Z26	X27	Y27	Z27	X28	Y28	Z28	X29	Y29	Z29	X30	Y30	Z30	X31	Y31	Z31	X32	Y32	Z32	X33	Y33	Z33	X34	Y34	Z34	X35	Y35	Z35	X36	Y36	Z36	X37	Y37	Z37	X38	Y38	Z38	X39	Y39	Z39	X40	Y40	Z40	X41	Y41	Z41	X42	Y42	Z42	X43	Y43	Z43	X44	Y44	Z44	X45	Y45	Z45	X46	Y46	Z46	X47	Y47	Z47	X48	Y48	Z48	X49	Y49	Z49	X50	Y50	Z50	X51	Y51	Z51	X52	Y52	Z52	X53	Y53	Z53	X54	Y54	Z54	X55	Y55	Z55	X56	Y56	Z56	X57	Y57	Z57	X58	Y58	Z58	X59	Y59	Z59	X60	Y60	Z60	

1	0	-231.580795288086	1865.962280273438	-888.0517578125002	-366.6620788574219	1750.588012695313	-957.0169067382815	-367.9314575195313	1743.035522460938	-810.7170410156252	-422.2385559082032	1608.90234375	-891.4480590820315	-442.0828552246095	1275.94580078125	-882.6159667968752	-257.2008361816407	1555.49560546875	-898.7854614257815	-332.7159118652344	1573.383178710938	-1093.90576171875	-379.5063781738282	1346.591918945313	-1176.583129882813	-337.5793151855469	1322.33447265625	-1172.575317382813	-380.3708190917969	1277.827758789063	-1177.91748046875	-373.0581359863282	1213.250366210938	-1176.757568359375	-402.2946166992189	1200.016845703125	-1106.95166015625	-225.9669036865235	946.0800781250002	-1138.3974609375	-294.7030334472657	926.1157836914065	-1177.18408203125	-198.9302673339844	860.8543701171877	-1172.3466796875	-296.9935607910157	1573.756103515625	-701.0200195312501	-351.4727172851563	1362.902465820313	-592.4632568359376	-311.7286071777344	1336.83203125	-600.2098388671876	-352.3956604003907	1293.880737304688	-586.0244140625001	-344.1986389160157	1227.492065429688	-582.5350341796876	-382.1876220703126	1208.8232421875	-650.8917846679689	-216.0989685058594	960.2305908203127	-613.9621582031251	-270.7818908691407	943.3415527343752	-559.2742919921876	-187.4397735595703	873.3756103515627	-587.1549072265626	-256.4508666992188	1062.80615234375	-1028.414306640625	-236.7681121826172	1089.7392578125	-741.7059936523439	-449.5026245117189	1160.450927734375	-876.7250976562502	-457.1949768066407	1129.381225585938	-904.5027465820315	-455.6654052734376	1128.101318359375	-848.9289550781252	-341.8246765136719	858.8336181640627	-1088.50439453125	-322.5722961425782	777.4260864257815	-1090.988525390625	-272.5626525878907	772.7222290039065	-1083.81982421875	-356.6504821777344	728.8037109375001	-1076.450805664063	-342.2482604980469	580.6312255859376	-1059.682983398438	-328.0045776367188	546.9671020507814	-930.506286621094	-298.9111633300782	359.4040527343751	-1020.681213378906	-332.5299072265626	320.9775390625001	-1094.085693359375	-298.7396240234376	317.1596679687501	-1062.442993164063	-295.5857238769532	236.1049041748047	-1041.101196289063	-345.2059631347657	115.0433883666992	-1093.110961914063	-397.8933105468751	81.47276306152345	-1043.90283203125	-189.1158599853516	57.62215805053712	-1021.833862304688	-182.6761474609375	58.54726791381837	-1064.071899414063	-314.1126708984376	123.6749343872071	-1009.283569335938	-364.7503356933594	760.9663696289064	-695.2235717773439	-337.0544128417969	701.1995239257814	-693.9329833984376	-303.4616394042969	697.9266357421876	-696.8488769531251	-374.5332641601563	630.4746093750001	-709.4508666992189	-379.8995666503907	559.8916625976564	-711.5115966796876	-342.9347229003907	541.8784790039064	-838.6286621093752	-322.8023986816407	426.7691040039064	-725.3372192382814	-380.5380859375001	342.0483093261719	-693.5200195312501	-336.3889160156251	341.2410278320313	-711.7542114257814	-326.6445617675782	297.7475585937501	-750.5255126953126	-376.5133666992188	114.0813217163086	-710.1824340820314	-344.4273376464844	123.1241226196289	-797.9327392578127	-433.8244018554689	83.71323394775392	-765.8419189453126	-210.0748138427735	61.24568557739259	-753.2927246093751	-215.1111297607422	61.15914916992189	-715.3400878906251	-234.4671630859376	43.39643096923829	-668.1841430664064	
2	0.005	-231.7686157226563	1865.978759765625	-888.0335693359377	-366.8634948730469	1750.619140625	-957.0174560546877	-368.0955810546876	1743.030517578125	-810.6992187500002	-422.2904357910157	1608.821533203125	-891.4844360351565	-442.117889404297	1275.974365234375	-882.6023559570315	-257.2829895019532	1555.53564453125	-898.7559814453127	-332.6089172363282	1573.465454101563	-1093.81591796875	-379.4064331054688	1346.640502929688	-1176.642578125	-337.5506286621094	1322.421142578125	-1172.626953125	-380.2353820800782	1277.941528320313	-1177.996826171875	-372.9413452148438	1213.30810546875	-1176.861206054688	-402.3030700683595	1200.079223632813	-1107.02392578125	-225.9042205810547	946.1647949218752	-1138.425415039063	-294.5621948242188	926.1768798828127	-1177.266235351563	-199.3352813720704	860.3398437500002	-1172.381958007813	-297.0550842285157	1573.79638671875	-700.9950561523439	-351.5486450195313	1362.964965820313	-592.3847045898439	-311.7402343750001	1336.919189453125	-600.1654052734376	-352.0293884277344	1293.564208984375	-586.2994384765626	-344.2258911132813	1227.535766601563	-582.4785766601564	-382.1965942382813	1208.891235351563	-650.8386840820314	-216.0557861328126	960.2819824218752	-613.9757690429689	-270.7676391601563	943.3870239257815	-559.2246093750001	-187.3687744140625	873.4788208007815	-587.1898803710939	-256.4823608398438	1062.795043945313	-1028.375610351563	-236.7110290527344	1089.74853515625	-741.7082519531251	-449.4692382812501	1160.397338867188	-876.7348632812502	-457.1460571289064	1129.367309570313	-904.4920654296877	-455.6143798828126	1128.114624023438	-848.9189453125002	-341.8113403320313	858.913269042969	-1088.478271484375	-322.4722595214844	777.4547119140627	-1090.978759765625	-272.5133056640626	772.726989746094	-1083.7958984375	-356.5827331542969	728.8105468750001	-1076.438232421875	-342.2482910156251	580.6312866210939	-1059.682983398438	-327.9857788085938	546.9596557617189	-930.5679931640627	-298.9438781738282	359.3906555175782	-1020.710754394531	-332.5252380371094	320.9718627929688	-1094.0859375	-298.7133789062501	317.1705932617188	-1062.466430664063	-295.5172729492188	236.0894775390626	-1041.1142578125	-345.2239379882813	115.0292663574219	-1093.11669921875	-397.9258728027345	81.47779083251955	-1043.9033203125	-189.0916748046875	57.61272430419923	-1021.855163574219	-182.6493225097657	58.53573989868165	-1064.067749023438	-314.1252746582032	123.6636810302735	-1009.263488769531	-364.7488098144532	760.9425659179689	-695.2236938476564	-336.9929199218751	701.1838989257814	-693.9490356445314	-303.4284057617188	697.9411010742189	-696.8387451171876	-374.4552612304688	630.4620971679689	-709.4388427734376	-379.8292541503907	559.8754882812501	-711.5329589843751	-342.9336242675782	541.8776855468751	-838.6282958984377	-322.8033142089844	426.7697753906251	-725.3358764648439	-380.5447692871094	342.0281372070313	-693.5202636718751	-336.4018859863282	341.2197875976563	-711.7697753906251	-325.5656127929688	297.2038574218751	-749.8069458007814	-376.5192871093751	114.0875091552735	-710.1610107421876	-344.3753356933594	123.1470947265625	-797.939880371094	-433.7888488769532	83.7122268676758	-765.8186645507814	-210.0864715576172	61.23803710937501	-753.2967529296876	-215.1455230712891	61.11995697021486	-715.3897705078126	-234.4882812500001	43.38837814331055	-668.2247314453126	
3	0.01	-232.0020446777344	1866.012939453125	-888.0108032226565	-366.9380798339844	1750.506958007813	-957.0473632812502	-368.2152709960938	1742.991088867188	-810.755554199219	-422.3353576660157	1608.787353515625	-891.517517089844	-442.0872192382814	1275.916259765625	-882.5867309570315	-257.2958068847657	1555.58203125	-898.7458496093752	-332.6009521484376	1573.50146484375	-1093.8037109375	-379.4089965820313	1346.706298828125	-1176.738159179688	-337.5043029785157	1322.492797851563	-1172.697875976563	-380.2004394531251	1278.005493164063	-1178.090454101563	-372.8919677734376	1213.397216796875	-1176.947875976563	-402.3159484863282	1200.125732421875	-1107.157470703125	-225.7825469970704	946.2546997070315	-1138.466674804688	-294.4376525878907	926.2641601562502	-1177.309326171875	-198.7184753417969	861.0472412109377	-1172.376586914063	-297.0930175781251	1573.836791992188	-700.9983520507814	-351.6410827636719	1363.022583007813	-592.3286132812501	-311.7911987304688	1336.948120117188	-600.2234497070314	-352.0523986816407	1293.6259765625	-586.2395629882814	-344.2705993652344	1227.573120117188	-582.4104003906251	-382.2277832031251	1208.899780273438	-650.7659301757814	-216.0442352294922	960.3794555664065	-613.9766845703126	-270.7237548828126	943.4302978515627	-559.2154541015626	-187.243637084961	873.582214355469	-587.2261962890626	-256.4282531738282	1062.83447265625	-1028.40576171875	-236.6857604980469	1089.736328125	-741.7382812500001	-449.4506225585939	1160.387817382813	-876.7220458984377	-457.1328735351564	1129.336791992188	-904.4929809570315	-455.6022949218751	1128.036987304688	-848.9083251953127	-341.7417602539063	858.897155761719	-1088.488403320313	-322.5484313964844	777.4575805664065	-1091.026733398438	-275.3063049316407	773.2417602539065	-1085.143432617188	-356.5671386718751	728.7769165039064	-1076.441528320313	-342.2326660156251	580.6221313476564	-1059.669799804688	-327.9812316894532	546.9726562500001	-930.5629882812502	-298.9191284179688	359.3795776367188	-1020.768249511719	-332.5209045410157	320.9555053710938	-1094.082275390625	-298.5876770019532	317.2496643066407	-1062.496826171875	-295.5172729492188	236.0895080566407	-1041.1142578125	-345.2299804687501	115.0586624145508	-1093.11865234375	-397.899871826172	81.49191284179689	-1043.914184570313	-189.0888366699219	57.59822082519533	-1021.867797851563	-182.6240692138672	58.53774261474611	-1064.04248046875	-314.0971679687501	123.672348022461	-1009.274658203125	-364.7140197753907	760.9499511718751	-695.1800537109376	-337.0153503417969	701.2401123046876	-693.9227294921876	-303.3798828125001	697.9450073242189	-696.8814086914064	-374.4266662597657	630.4716186523439	-709.4694824218751	-379.8069152832032	559.8634033203126	-711.5410156250001	-342.8738708496094	541.8675537109376	-838.647888183594	-322.7765502929688	426.7715759277345	-725.3173828125001	-380.5447387695313	342.0281372070313	-693.5202636718751	-336.4119873046876	341.2257080078126	-711.7881469726564	-325.5735168457032	297.2196655273438	-749.8204956054689	-376.5340576171876	114.0799179077149	-710.1880493164064	-344.4914245605469	123.0607299804688	-797.930847167969	-433.793182373047	83.72637176513673	-765.8177490234376	-210.0715789794922	61.23054504394533	-753.2883911132814	-215.1439666748047	61.11090087890626	-715.3941040039064	-234.463119506836	43.41527938842774	-668.1746215820314	
4	0.015	-232.2730712890626	1866.10498046875	-887.9963378906252	-367.1331176757813	1750.550537109375	-956.9516601562502	-368.4114990234376	1742.962036132813	-810.5708007812502	-422.4414367675782	1608.772216796875	-891.5146484375002	-442.1143188476564	1275.885620117188	-882.5605468750002	-257.3918762207032	1555.613037109375	-898.7203369140627	-332.5983581542969	1573.547119140625	-1093.760009765625	-379.3199462890626	1346.75732421875	-1176.791870117188	-337.4803466796876	1322.559448242188	-1172.741088867188	-380.0793151855469	1278.766479492188	-1178.397705078125	-372.8657836914063	1213.48681640625	-1177.050415039063	-402.2598571777345	1200.191040039063	-1107.287475585938	-225.6256103515626	946.3646240234377	-1138.515869140625	-294.3107604980469	926.3227539062502	-1177.414428710938	-198.5796508789063	861.1313476562502	-1172.340698242188	-297.1637268066407	1573.865112304688	-700.9797363281251	-351.6879882812501	1363.07080078125	-592.3244018554689	-311.8288269042969	1336.995483398438	-600.1027832031251	-352.1318969726563	1293.68603515625	-586.1784667968751	-344.3093872070313	1227.614624023438	-582.3813476562501	-382.1972045898438	1208.980590820313	-650.7510986328126	-215.9727172851563	960.450622558594	-613.9620971679689	-270.6550292968751	943.4604492187502	-559.2234497070314	-187.1372680664063	873.690612792969	-587.2464599609376	-256.3831176757813	1062.84228515625	-1028.437255859375	-236.6063995361329	1089.76806640625	-741.7122802734376	-449.5113830566407	1160.359741210938	-876.7171630859377	-457.1268615722657	1129.31005859375	-904.4912109375002	-455.5955810546876	1128.04931640625	-848.9109497070315	-341.6936035156251	858.8596801757815	-1088.52490234375	-322.4124145507813	777.4288330078127	-1091.005493164063	-272.5574645996094	772.7283935546877	-1083.86279296875	-356.5561828613282	728.7779541015626	-1076.497314453125	-342.1383056640626	580.6136474609376	-1059.708862304688	-327.9347229003907	546.9730834960939	-930.5913085937502	-298.8697509765626	359.3915100097657	-1020.779663085938	-332.4797668457032	320.9806213378907	-1094.085815429688	-298.6604309082032	317.1658935546876	-1062.481079101563	-295.5172729492188	236.0895080566407	-1041.1142578125	-345.2002563476563	115.0510635375977	-1093.107666015625	-397.8984375000001	81.4786834716797	-1043.9130859375	-189.0946350097657	57.61159515380861	-1021.866577148438	-182.6640167236328	58.58994293212892	-1064.061401367188	-314.0877380371094	123.6747207641602	-1009.268249511719	-364.6513061523438	760.9475708007814	-695.2015991210939	-336.9494018554688	701.1915283203126	-693.9893798828126	-303.3324890136719	697.9513549804689	-696.8467407226564	-374.4464721679688	630.4637451171876	-709.4934082031251	-379.7853698730469	559.8703613281251	-711.5556640625001	-342.8275146484376	541.8725585937501	-838.6343383789065	-322.7724914550782	426.7825927734376	-725.3123168945314	-380.5602416992188	342.0295104980469	-693.5554809570314	-336.4149780273438	341.2217407226563	-711.7860107421876	-326.2447204589844	296.8910217285157	-750.6382446289064	-376.5342407226563	114.0687332153321	-710.1867675781251	-344.4677734375001	123.1251678466797	-797.956970214844	-433.8191223144532	83.72917938232423	-765.8139038085939	-210.0755615234376	61.22681045532228	-753.2958374023439	-215.1504211425782	61.13364028930665	-715.3872070312501	-234.4856262207032	43.39645004272462	-668.1864013671876	
